<mxfile host="Electron" modified="2023-05-27T14:19:27.212Z" agent="Mozilla/5.0 (Macintosh; Intel Mac OS X 10_15_7) AppleWebKit/537.36 (KHTML, like Gecko) draw.io/21.2.1 Chrome/112.0.5615.87 Electron/24.1.2 Safari/537.36" etag="MbWDEPsgKGyP3zGF8aR0" version="21.2.1" type="device">
  <diagram name="Page-1" id="H1nZVYqxkzLZFgEqRADx">
    <mxGraphModel dx="452" dy="1945" grid="1" gridSize="10" guides="1" tooltips="1" connect="1" arrows="1" fold="1" page="1" pageScale="1" pageWidth="850" pageHeight="1100" math="0" shadow="0">
      <root>
        <mxCell id="0" />
        <mxCell id="1" parent="0" />
        <mxCell id="AsBp8XiL8Dx4Y6rQVwFH-356" value="R, W: 105, H: 104, ORDER: 10, GC: {44, 28, 33, 16, 12, 7, 26, 19, 60, 45} " style="text;html=1;strokeColor=none;fillColor=none;align=center;verticalAlign=middle;whiteSpace=wrap;rounded=0;" parent="1" vertex="1">
          <mxGeometry x="1150" width="1050" height="30" as="geometry" />
        </mxCell>
        <mxCell id="AsBp8XiL8Dx4Y6rQVwFH-4677" value="R, W: 105, H: 71, ORDER: 16, GC: {30, 19, 20, 11, 8, 36, 7, 13, 15, 9, 4, 1, 35, 5, 41, 29} " style="text;html=1;strokeColor=none;fillColor=none;align=center;verticalAlign=middle;whiteSpace=wrap;rounded=0;" parent="1" vertex="1">
          <mxGeometry x="1145" y="1290" width="1050" height="30" as="geometry" />
        </mxCell>
        <mxCell id="AsBp8XiL8Dx4Y6rQVwFH-5681" value="R, W: 105, H: 88, ORDER: 17, GC: {37, 23, 19, 26, 12, 7, 14, 9, 33, 1, 11, 10, 51, 21, 4, 29, 25} " style="text;html=1;strokeColor=none;fillColor=none;align=center;verticalAlign=middle;whiteSpace=wrap;rounded=0;" parent="1" vertex="1">
          <mxGeometry x="1150" y="2150" width="1050" height="30" as="geometry" />
        </mxCell>
        <mxCell id="AsBp8XiL8Dx4Y6rQVwFH-7173" value="R, W: 105, H: 87, ORDER: 18, GC: {21, 17, 27, 4, 13, 25, 40, 3, 24, 16, 11, 10, 19, 1, 9, 41, 36, 28} " style="text;html=1;strokeColor=none;fillColor=none;align=center;verticalAlign=middle;whiteSpace=wrap;rounded=0;" parent="1" vertex="1">
          <mxGeometry x="1145" y="3230" width="1050" height="30" as="geometry" />
        </mxCell>
        <mxCell id="JwGBPkAIjTuVOSGxgzNQ-1" value="" style="group;flipV=1;" vertex="1" connectable="0" parent="1">
          <mxGeometry x="1145" y="3280" width="1050" height="870" as="geometry" />
        </mxCell>
        <mxCell id="761dnnyQ54j-Cl0NHfQN-7174" value="21" style="rounded=0;whiteSpace=wrap;html=1;" parent="JwGBPkAIjTuVOSGxgzNQ-1" vertex="1">
          <mxGeometry y="660" width="210" height="210" as="geometry" />
        </mxCell>
        <mxCell id="761dnnyQ54j-Cl0NHfQN-7175" value="17" style="rounded=0;whiteSpace=wrap;html=1;" parent="JwGBPkAIjTuVOSGxgzNQ-1" vertex="1">
          <mxGeometry x="210" y="700" width="170" height="170" as="geometry" />
        </mxCell>
        <mxCell id="761dnnyQ54j-Cl0NHfQN-7176" value="27" style="rounded=0;whiteSpace=wrap;html=1;" parent="JwGBPkAIjTuVOSGxgzNQ-1" vertex="1">
          <mxGeometry x="380" y="600" width="270" height="270" as="geometry" />
        </mxCell>
        <mxCell id="761dnnyQ54j-Cl0NHfQN-7177" value="4" style="rounded=0;whiteSpace=wrap;html=1;" parent="JwGBPkAIjTuVOSGxgzNQ-1" vertex="1">
          <mxGeometry x="210" y="660" width="40" height="40" as="geometry" />
        </mxCell>
        <mxCell id="761dnnyQ54j-Cl0NHfQN-7178" value="13" style="rounded=0;whiteSpace=wrap;html=1;" parent="JwGBPkAIjTuVOSGxgzNQ-1" vertex="1">
          <mxGeometry x="250" y="570" width="130" height="130" as="geometry" />
        </mxCell>
        <mxCell id="761dnnyQ54j-Cl0NHfQN-7179" value="25" style="rounded=0;whiteSpace=wrap;html=1;" parent="JwGBPkAIjTuVOSGxgzNQ-1" vertex="1">
          <mxGeometry y="410" width="250" height="250" as="geometry" />
        </mxCell>
        <mxCell id="761dnnyQ54j-Cl0NHfQN-7180" value="40" style="rounded=0;whiteSpace=wrap;html=1;" parent="JwGBPkAIjTuVOSGxgzNQ-1" vertex="1">
          <mxGeometry x="650" y="470" width="400" height="400" as="geometry" />
        </mxCell>
        <mxCell id="761dnnyQ54j-Cl0NHfQN-7181" value="3" style="rounded=0;whiteSpace=wrap;html=1;" parent="JwGBPkAIjTuVOSGxgzNQ-1" vertex="1">
          <mxGeometry x="380" y="570" width="30" height="30" as="geometry" />
        </mxCell>
        <mxCell id="761dnnyQ54j-Cl0NHfQN-7182" value="24" style="rounded=0;whiteSpace=wrap;html=1;" parent="JwGBPkAIjTuVOSGxgzNQ-1" vertex="1">
          <mxGeometry x="410" y="360" width="240" height="240" as="geometry" />
        </mxCell>
        <mxCell id="761dnnyQ54j-Cl0NHfQN-7183" value="16" style="rounded=0;whiteSpace=wrap;html=1;" parent="JwGBPkAIjTuVOSGxgzNQ-1" vertex="1">
          <mxGeometry x="250" y="410" width="160" height="160" as="geometry" />
        </mxCell>
        <mxCell id="761dnnyQ54j-Cl0NHfQN-7184" value="11" style="rounded=0;whiteSpace=wrap;html=1;" parent="JwGBPkAIjTuVOSGxgzNQ-1" vertex="1">
          <mxGeometry x="650" y="360" width="110" height="110" as="geometry" />
        </mxCell>
        <mxCell id="761dnnyQ54j-Cl0NHfQN-7185" value="10" style="rounded=0;whiteSpace=wrap;html=1;" parent="JwGBPkAIjTuVOSGxgzNQ-1" vertex="1">
          <mxGeometry x="760" y="370" width="100" height="100" as="geometry" />
        </mxCell>
        <mxCell id="761dnnyQ54j-Cl0NHfQN-7186" value="19" style="rounded=0;whiteSpace=wrap;html=1;" parent="JwGBPkAIjTuVOSGxgzNQ-1" vertex="1">
          <mxGeometry x="860" y="280" width="190" height="190" as="geometry" />
        </mxCell>
        <mxCell id="761dnnyQ54j-Cl0NHfQN-7187" value="1" style="rounded=0;whiteSpace=wrap;html=1;" parent="JwGBPkAIjTuVOSGxgzNQ-1" vertex="1">
          <mxGeometry x="760" y="360" width="10" height="10" as="geometry" />
        </mxCell>
        <mxCell id="761dnnyQ54j-Cl0NHfQN-7188" value="9" style="rounded=0;whiteSpace=wrap;html=1;" parent="JwGBPkAIjTuVOSGxgzNQ-1" vertex="1">
          <mxGeometry x="770" y="280" width="90" height="90" as="geometry" />
        </mxCell>
        <mxCell id="761dnnyQ54j-Cl0NHfQN-7189" value="41" style="rounded=0;whiteSpace=wrap;html=1;" parent="JwGBPkAIjTuVOSGxgzNQ-1" vertex="1">
          <mxGeometry width="410" height="410" as="geometry" />
        </mxCell>
        <mxCell id="761dnnyQ54j-Cl0NHfQN-7190" value="36" style="rounded=0;whiteSpace=wrap;html=1;" parent="JwGBPkAIjTuVOSGxgzNQ-1" vertex="1">
          <mxGeometry x="410" width="360" height="360" as="geometry" />
        </mxCell>
        <mxCell id="761dnnyQ54j-Cl0NHfQN-7191" value="28" style="rounded=0;whiteSpace=wrap;html=1;" parent="JwGBPkAIjTuVOSGxgzNQ-1" vertex="1">
          <mxGeometry x="770" width="280" height="280" as="geometry" />
        </mxCell>
        <mxCell id="JwGBPkAIjTuVOSGxgzNQ-2" value="" style="group;flipV=1;" vertex="1" connectable="0" parent="1">
          <mxGeometry x="1150" y="2200" width="1050" height="880" as="geometry" />
        </mxCell>
        <mxCell id="761dnnyQ54j-Cl0NHfQN-5682" value="37" style="rounded=0;whiteSpace=wrap;html=1;" parent="JwGBPkAIjTuVOSGxgzNQ-2" vertex="1">
          <mxGeometry y="510" width="370" height="370" as="geometry" />
        </mxCell>
        <mxCell id="761dnnyQ54j-Cl0NHfQN-5683" value="23" style="rounded=0;whiteSpace=wrap;html=1;" parent="JwGBPkAIjTuVOSGxgzNQ-2" vertex="1">
          <mxGeometry x="370" y="650" width="230" height="230" as="geometry" />
        </mxCell>
        <mxCell id="761dnnyQ54j-Cl0NHfQN-5684" value="19" style="rounded=0;whiteSpace=wrap;html=1;" parent="JwGBPkAIjTuVOSGxgzNQ-2" vertex="1">
          <mxGeometry x="600" y="690" width="190" height="190" as="geometry" />
        </mxCell>
        <mxCell id="761dnnyQ54j-Cl0NHfQN-5685" value="26" style="rounded=0;whiteSpace=wrap;html=1;" parent="JwGBPkAIjTuVOSGxgzNQ-2" vertex="1">
          <mxGeometry x="790" y="620" width="260" height="260" as="geometry" />
        </mxCell>
        <mxCell id="761dnnyQ54j-Cl0NHfQN-5686" value="12" style="rounded=0;whiteSpace=wrap;html=1;" parent="JwGBPkAIjTuVOSGxgzNQ-2" vertex="1">
          <mxGeometry x="600" y="570" width="120" height="120" as="geometry" />
        </mxCell>
        <mxCell id="761dnnyQ54j-Cl0NHfQN-5687" value="7" style="rounded=0;whiteSpace=wrap;html=1;" parent="JwGBPkAIjTuVOSGxgzNQ-2" vertex="1">
          <mxGeometry x="720" y="620" width="70" height="70" as="geometry" />
        </mxCell>
        <mxCell id="761dnnyQ54j-Cl0NHfQN-5688" value="14" style="rounded=0;whiteSpace=wrap;html=1;" parent="JwGBPkAIjTuVOSGxgzNQ-2" vertex="1">
          <mxGeometry x="370" y="510" width="140" height="140" as="geometry" />
        </mxCell>
        <mxCell id="761dnnyQ54j-Cl0NHfQN-5689" value="9" style="rounded=0;whiteSpace=wrap;html=1;" parent="JwGBPkAIjTuVOSGxgzNQ-2" vertex="1">
          <mxGeometry x="510" y="560" width="90" height="90" as="geometry" />
        </mxCell>
        <mxCell id="761dnnyQ54j-Cl0NHfQN-5690" value="33" style="rounded=0;whiteSpace=wrap;html=1;" parent="JwGBPkAIjTuVOSGxgzNQ-2" vertex="1">
          <mxGeometry x="720" y="290" width="330" height="330" as="geometry" />
        </mxCell>
        <mxCell id="761dnnyQ54j-Cl0NHfQN-5691" value="1" style="rounded=0;whiteSpace=wrap;html=1;" parent="JwGBPkAIjTuVOSGxgzNQ-2" vertex="1">
          <mxGeometry x="600" y="560" width="10" height="10" as="geometry" />
        </mxCell>
        <mxCell id="761dnnyQ54j-Cl0NHfQN-5692" value="11" style="rounded=0;whiteSpace=wrap;html=1;" parent="JwGBPkAIjTuVOSGxgzNQ-2" vertex="1">
          <mxGeometry x="610" y="460" width="110" height="110" as="geometry" />
        </mxCell>
        <mxCell id="761dnnyQ54j-Cl0NHfQN-5693" value="10" style="rounded=0;whiteSpace=wrap;html=1;" parent="JwGBPkAIjTuVOSGxgzNQ-2" vertex="1">
          <mxGeometry x="510" y="460" width="100" height="100" as="geometry" />
        </mxCell>
        <mxCell id="761dnnyQ54j-Cl0NHfQN-5694" value="51" style="rounded=0;whiteSpace=wrap;html=1;" parent="JwGBPkAIjTuVOSGxgzNQ-2" vertex="1">
          <mxGeometry width="510" height="510" as="geometry" />
        </mxCell>
        <mxCell id="761dnnyQ54j-Cl0NHfQN-5695" value="21" style="rounded=0;whiteSpace=wrap;html=1;" parent="JwGBPkAIjTuVOSGxgzNQ-2" vertex="1">
          <mxGeometry x="510" y="250" width="210" height="210" as="geometry" />
        </mxCell>
        <mxCell id="761dnnyQ54j-Cl0NHfQN-5696" value="4" style="rounded=0;whiteSpace=wrap;html=1;" parent="JwGBPkAIjTuVOSGxgzNQ-2" vertex="1">
          <mxGeometry x="720" y="250" width="40" height="40" as="geometry" />
        </mxCell>
        <mxCell id="761dnnyQ54j-Cl0NHfQN-5697" value="29" style="rounded=0;whiteSpace=wrap;html=1;" parent="JwGBPkAIjTuVOSGxgzNQ-2" vertex="1">
          <mxGeometry x="760" width="290" height="290" as="geometry" />
        </mxCell>
        <mxCell id="761dnnyQ54j-Cl0NHfQN-5698" value="25" style="rounded=0;whiteSpace=wrap;html=1;" parent="JwGBPkAIjTuVOSGxgzNQ-2" vertex="1">
          <mxGeometry x="510" width="250" height="250" as="geometry" />
        </mxCell>
        <mxCell id="JwGBPkAIjTuVOSGxgzNQ-3" value="" style="group;flipV=1;" vertex="1" connectable="0" parent="1">
          <mxGeometry x="1145" y="1340" width="1050" height="710" as="geometry" />
        </mxCell>
        <mxCell id="761dnnyQ54j-Cl0NHfQN-4678" value="30" style="rounded=0;whiteSpace=wrap;html=1;" parent="JwGBPkAIjTuVOSGxgzNQ-3" vertex="1">
          <mxGeometry y="410" width="300" height="300" as="geometry" />
        </mxCell>
        <mxCell id="761dnnyQ54j-Cl0NHfQN-4679" value="19" style="rounded=0;whiteSpace=wrap;html=1;" parent="JwGBPkAIjTuVOSGxgzNQ-3" vertex="1">
          <mxGeometry x="300" y="520" width="190" height="190" as="geometry" />
        </mxCell>
        <mxCell id="761dnnyQ54j-Cl0NHfQN-4680" value="20" style="rounded=0;whiteSpace=wrap;html=1;" parent="JwGBPkAIjTuVOSGxgzNQ-3" vertex="1">
          <mxGeometry x="490" y="510" width="200" height="200" as="geometry" />
        </mxCell>
        <mxCell id="761dnnyQ54j-Cl0NHfQN-4681" value="11" style="rounded=0;whiteSpace=wrap;html=1;" parent="JwGBPkAIjTuVOSGxgzNQ-3" vertex="1">
          <mxGeometry x="300" y="410" width="110" height="110" as="geometry" />
        </mxCell>
        <mxCell id="761dnnyQ54j-Cl0NHfQN-4682" value="8" style="rounded=0;whiteSpace=wrap;html=1;" parent="JwGBPkAIjTuVOSGxgzNQ-3" vertex="1">
          <mxGeometry x="410" y="440" width="80" height="80" as="geometry" />
        </mxCell>
        <mxCell id="761dnnyQ54j-Cl0NHfQN-4683" value="36" style="rounded=0;whiteSpace=wrap;html=1;" parent="JwGBPkAIjTuVOSGxgzNQ-3" vertex="1">
          <mxGeometry x="690" y="350" width="360" height="360" as="geometry" />
        </mxCell>
        <mxCell id="761dnnyQ54j-Cl0NHfQN-4684" value="7" style="rounded=0;whiteSpace=wrap;html=1;" parent="JwGBPkAIjTuVOSGxgzNQ-3" vertex="1">
          <mxGeometry x="490" y="440" width="70" height="70" as="geometry" />
        </mxCell>
        <mxCell id="761dnnyQ54j-Cl0NHfQN-4685" value="13" style="rounded=0;whiteSpace=wrap;html=1;" parent="JwGBPkAIjTuVOSGxgzNQ-3" vertex="1">
          <mxGeometry x="560" y="380" width="130" height="130" as="geometry" />
        </mxCell>
        <mxCell id="761dnnyQ54j-Cl0NHfQN-4686" value="15" style="rounded=0;whiteSpace=wrap;html=1;" parent="JwGBPkAIjTuVOSGxgzNQ-3" vertex="1">
          <mxGeometry x="410" y="290" width="150" height="150" as="geometry" />
        </mxCell>
        <mxCell id="761dnnyQ54j-Cl0NHfQN-4687" value="9" style="rounded=0;whiteSpace=wrap;html=1;" parent="JwGBPkAIjTuVOSGxgzNQ-3" vertex="1">
          <mxGeometry x="560" y="290" width="90" height="90" as="geometry" />
        </mxCell>
        <mxCell id="761dnnyQ54j-Cl0NHfQN-4688" value="4" style="rounded=0;whiteSpace=wrap;html=1;" parent="JwGBPkAIjTuVOSGxgzNQ-3" vertex="1">
          <mxGeometry x="650" y="340" width="40" height="40" as="geometry" />
        </mxCell>
        <mxCell id="761dnnyQ54j-Cl0NHfQN-4689" value="1" style="rounded=0;whiteSpace=wrap;html=1;" parent="JwGBPkAIjTuVOSGxgzNQ-3" vertex="1">
          <mxGeometry x="690" y="340" width="10" height="10" as="geometry" />
        </mxCell>
        <mxCell id="761dnnyQ54j-Cl0NHfQN-4690" value="35" style="rounded=0;whiteSpace=wrap;html=1;" parent="JwGBPkAIjTuVOSGxgzNQ-3" vertex="1">
          <mxGeometry x="700" width="350" height="350" as="geometry" />
        </mxCell>
        <mxCell id="761dnnyQ54j-Cl0NHfQN-4691" value="5" style="rounded=0;whiteSpace=wrap;html=1;" parent="JwGBPkAIjTuVOSGxgzNQ-3" vertex="1">
          <mxGeometry x="650" y="290" width="50" height="50" as="geometry" />
        </mxCell>
        <mxCell id="761dnnyQ54j-Cl0NHfQN-4692" value="41" style="rounded=0;whiteSpace=wrap;html=1;" parent="JwGBPkAIjTuVOSGxgzNQ-3" vertex="1">
          <mxGeometry width="410" height="410" as="geometry" />
        </mxCell>
        <mxCell id="761dnnyQ54j-Cl0NHfQN-4693" value="29" style="rounded=0;whiteSpace=wrap;html=1;" parent="JwGBPkAIjTuVOSGxgzNQ-3" vertex="1">
          <mxGeometry x="410" width="290" height="290" as="geometry" />
        </mxCell>
        <mxCell id="JwGBPkAIjTuVOSGxgzNQ-5" value="" style="group;flipV=1;" vertex="1" connectable="0" parent="1">
          <mxGeometry x="1150" y="50" width="1050" height="1040" as="geometry" />
        </mxCell>
        <mxCell id="761dnnyQ54j-Cl0NHfQN-357" value="44" style="rounded=0;whiteSpace=wrap;html=1;" parent="JwGBPkAIjTuVOSGxgzNQ-5" vertex="1">
          <mxGeometry y="600" width="440" height="440" as="geometry" />
        </mxCell>
        <mxCell id="761dnnyQ54j-Cl0NHfQN-358" value="28" style="rounded=0;whiteSpace=wrap;html=1;" parent="JwGBPkAIjTuVOSGxgzNQ-5" vertex="1">
          <mxGeometry x="440" y="760" width="280" height="280" as="geometry" />
        </mxCell>
        <mxCell id="761dnnyQ54j-Cl0NHfQN-359" value="33" style="rounded=0;whiteSpace=wrap;html=1;" parent="JwGBPkAIjTuVOSGxgzNQ-5" vertex="1">
          <mxGeometry x="720" y="710" width="330" height="330" as="geometry" />
        </mxCell>
        <mxCell id="761dnnyQ54j-Cl0NHfQN-360" value="16" style="rounded=0;whiteSpace=wrap;html=1;" parent="JwGBPkAIjTuVOSGxgzNQ-5" vertex="1">
          <mxGeometry x="440" y="600" width="160" height="160" as="geometry" />
        </mxCell>
        <mxCell id="761dnnyQ54j-Cl0NHfQN-361" value="12" style="rounded=0;whiteSpace=wrap;html=1;" parent="JwGBPkAIjTuVOSGxgzNQ-5" vertex="1">
          <mxGeometry x="600" y="640" width="120" height="120" as="geometry" />
        </mxCell>
        <mxCell id="761dnnyQ54j-Cl0NHfQN-362" value="7" style="rounded=0;whiteSpace=wrap;html=1;" parent="JwGBPkAIjTuVOSGxgzNQ-5" vertex="1">
          <mxGeometry x="720" y="640" width="70" height="70" as="geometry" />
        </mxCell>
        <mxCell id="761dnnyQ54j-Cl0NHfQN-363" value="26" style="rounded=0;whiteSpace=wrap;html=1;" parent="JwGBPkAIjTuVOSGxgzNQ-5" vertex="1">
          <mxGeometry x="790" y="450" width="260" height="260" as="geometry" />
        </mxCell>
        <mxCell id="761dnnyQ54j-Cl0NHfQN-364" value="19" style="rounded=0;whiteSpace=wrap;html=1;" parent="JwGBPkAIjTuVOSGxgzNQ-5" vertex="1">
          <mxGeometry x="600" y="450" width="190" height="190" as="geometry" />
        </mxCell>
        <mxCell id="761dnnyQ54j-Cl0NHfQN-365" value="60" style="rounded=0;whiteSpace=wrap;html=1;" parent="JwGBPkAIjTuVOSGxgzNQ-5" vertex="1">
          <mxGeometry width="600" height="600" as="geometry" />
        </mxCell>
        <mxCell id="761dnnyQ54j-Cl0NHfQN-366" value="45" style="rounded=0;whiteSpace=wrap;html=1;" parent="JwGBPkAIjTuVOSGxgzNQ-5" vertex="1">
          <mxGeometry x="600" width="450" height="450" as="geometry" />
        </mxCell>
      </root>
    </mxGraphModel>
  </diagram>
</mxfile>
